<svg width="24" height="24" viewBox="0 0 24 24" fill="none" xmlns="http://www.w3.org/2000/svg">
<path d="M7.74186 13.1613C7.1016 13.1613 6.58057 12.6403 6.58057 12C6.58057 11.3598 7.1016 10.8387 7.74186 10.8387C8.38211 10.8387 8.90315 11.3598 8.90315 12C8.90315 12.6403 8.38211 13.1613 7.74186 13.1613Z" fill="#C40B0B"/>
<path d="M16.258 13.1613C15.6177 13.1613 15.0967 12.6403 15.0967 12C15.0967 11.3598 15.6177 10.8387 16.258 10.8387C16.8982 10.8387 17.4193 11.3598 17.4193 12C17.4193 12.6403 16.8982 13.1613 16.258 13.1613Z" fill="#C40B0B"/>
<path d="M23.2258 21.6774V0H20.9032V1.38155L19.8914 0.774194H4.10864L3.09677 1.38155V0H0.774194V21.6774H0V24H3.87097V21.6774H3.09677V17.8065H5.03226C5.03226 18.6604 5.72671 19.3548 6.58065 19.3548C7.43458 19.3548 8.12903 18.6604 8.12903 17.8065V16.2581H15.871V17.8065C15.871 18.6604 16.5654 19.3548 17.4194 19.3548C18.2733 19.3548 18.9677 18.6604 18.9677 17.8065H20.9032V21.6774H20.129V24H24V21.6774H23.2258ZM22.4516 0.774194V20.129H21.6774V0.774194H22.4516ZM17.4194 13.9355V14.7097H18.9677C19.1814 14.7097 19.3548 14.8831 19.3548 15.0968C19.3548 15.3105 19.1814 15.4839 18.9677 15.4839H5.03226C4.81858 15.4839 4.64516 15.3105 4.64516 15.0968C4.64516 14.8831 4.81858 14.7097 5.03226 14.7097H16.6452V13.9355H5.80645V11.0865C5.80645 10.9026 5.93729 10.7427 6.11768 10.7067L7.74194 10.3819V6.96774C7.74194 6.75445 7.91535 6.58065 8.12903 6.58065H15.871C16.0846 6.58065 16.2581 6.75445 16.2581 6.96774V10.3819L17.8823 10.7067C18.0627 10.7427 18.1935 10.9026 18.1935 11.0865V13.9355H17.4194ZM18.0345 9.94761L17.0323 9.7471V6.96774C17.0323 6.32748 16.5112 5.80645 15.871 5.80645H8.12903C7.48877 5.80645 6.96774 6.32748 6.96774 6.96774V9.7471L5.96555 9.94761C5.42477 10.0556 5.03226 10.5345 5.03226 11.0865V11.2258H3.09677V4.09006L4.75239 3.09677H19.2472L20.9032 4.09006V11.2258H18.9677V11.0865C18.9677 10.5345 18.5752 10.0556 18.0345 9.94761ZM4.32348 1.54839H19.6765L20.9032 2.28465V3.18735L19.4621 2.32258H4.53794L3.09677 3.18735V2.28465L4.32348 1.54839ZM2.32258 0.774194V20.129H1.54839V0.774194H2.32258ZM1.54839 21.6774V20.9032H2.32258V21.6774H1.54839ZM3.09677 17.0323V12H5.03226V13.9355C4.392 13.9355 3.87097 14.4565 3.87097 15.0968C3.87097 15.737 4.392 16.2581 5.03226 16.2581V17.0323H3.09677ZM18.9677 17.0323V16.2581C19.608 16.2581 20.129 15.737 20.129 15.0968C20.129 14.4565 19.608 13.9355 18.9677 13.9355V12H20.9032V17.0323H18.9677ZM21.6774 20.9032H22.4516V21.6774H21.6774V20.9032Z" fill="#02133C"/>
<path d="M8.51611 10.0645H15.4839V7.35486H8.51611V10.0645Z" fill="#02133C"/>
<path d="M14.3227 12.3871H9.67749V13.1613H14.3227V12.3871Z" fill="#02133C"/>
<path d="M14.3227 10.8387H9.67749V11.6129H14.3227V10.8387Z" fill="#02133C"/>
<path d="M22.4517 18.5806H21.6775V19.3548H22.4517V18.5806Z" fill="#C40B0B"/>
<path d="M22.4517 17.0322H21.6775V17.8064H22.4517V17.0322Z" fill="#C40B0B"/>
<path d="M2.32253 18.5806H1.54834V19.3548H2.32253V18.5806Z" fill="#C40B0B"/>
<path d="M2.32253 17.0322H1.54834V17.8064H2.32253V17.0322Z" fill="#C40B0B"/>
</svg>
