<svg width="24" height="24" viewBox="0 0 24 24" fill="none" xmlns="http://www.w3.org/2000/svg">
<path d="M14.7098 8.12903H14.4439C13.7518 8.61522 12.9102 8.90322 12.0001 8.90322C11.0901 8.90322 10.2485 8.61522 9.5564 8.12903H9.29046L7.35498 12.3871H8.12917C8.34285 12.3871 8.51627 12.5605 8.51627 12.7742V17.4194C8.51627 18.4866 9.38453 19.3548 10.4518 19.3548H13.5485C14.6158 19.3548 15.484 18.4866 15.484 17.4194V12.7742C15.484 12.5605 15.6574 12.3871 15.8711 12.3871H16.6453L14.7098 8.12903Z" fill="#C40B0B"/>
<path d="M12.0001 6.9678C12.5385 6.9678 13.063 6.77967 13.4776 6.43747L12.9848 5.84018C12.7085 6.06818 12.3589 6.1936 12.0001 6.1936C11.1461 6.1936 10.4517 5.49915 10.4517 4.64521C10.4517 3.79128 11.1461 3.09683 12.0001 3.09683C12.854 3.09683 13.5485 3.79128 13.5485 4.64521C13.5485 4.9127 13.4792 5.17631 13.3479 5.4078L14.0215 5.78947C14.2185 5.44186 14.3227 5.04625 14.3227 4.64521C14.3227 3.36431 13.281 2.32263 12.0001 2.32263C10.7192 2.32263 9.67749 3.36431 9.67749 4.64521C9.67749 5.92612 10.7192 6.9678 12.0001 6.9678Z" fill="#02133C"/>
<path d="M4.25799 7.74194C3.19077 7.74194 2.32251 8.6102 2.32251 9.67743C2.32251 10.7447 3.19077 11.6129 4.25799 11.6129C5.32522 11.6129 6.19348 10.7447 6.19348 9.67743C6.19348 8.6102 5.32522 7.74194 4.25799 7.74194ZM5.34806 9.29033H4.64509V8.58736C4.97296 8.70427 5.23116 8.96246 5.34806 9.29033ZM3.8709 8.58736V9.29033H3.16793C3.28483 8.96246 3.54303 8.70427 3.8709 8.58736ZM3.16793 10.0645H3.8709V10.7675C3.54303 10.6506 3.28483 10.3924 3.16793 10.0645ZM4.64509 10.7675V10.0645H5.34806C5.23116 10.3924 4.97296 10.6506 4.64509 10.7675Z" fill="#02133C"/>
<path d="M19.7419 7.74194C18.6747 7.74194 17.8064 8.6102 17.8064 9.67743C17.8064 10.7447 18.6747 11.6129 19.7419 11.6129C20.8091 11.6129 21.6774 10.7447 21.6774 9.67743C21.6774 8.6102 20.8091 7.74194 19.7419 7.74194ZM20.8319 9.29033H20.129V8.58736C20.4568 8.70427 20.715 8.96246 20.8319 9.29033ZM19.3548 8.58736V9.29033H18.6518C18.7687 8.96246 19.0269 8.70427 19.3548 8.58736ZM18.6518 10.0645H19.3548V10.7675C19.0269 10.6506 18.7687 10.3924 18.6518 10.0645ZM20.129 10.7675V10.0645H20.8319C20.715 10.3924 20.4568 10.6506 20.129 10.7675Z" fill="#02133C"/>
<path d="M11.9999 12C10.9327 12 10.0645 12.8683 10.0645 13.9355C10.0645 15.0027 10.9327 15.871 11.9999 15.871C13.0672 15.871 13.9354 15.0027 13.9354 13.9355C13.9354 12.8683 13.0672 12 11.9999 12ZM11.9999 15.0968C11.3597 15.0968 10.8386 14.5757 10.8386 13.9355C10.8386 13.2952 11.3597 12.7742 11.9999 12.7742C12.6402 12.7742 13.1612 13.2952 13.1612 13.9355C13.1612 14.5757 12.6402 15.0968 11.9999 15.0968Z" fill="#02133C"/>
<path d="M24 12.7742C24 7.32194 20.3361 2.56955 15.0797 1.17716C14.2591 0.447484 13.1822 0 12 0C10.8178 0 9.7409 0.447484 8.92026 1.17716C3.66387 2.56955 0 7.32194 0 12.7742V13.1613H0.783871C0.989032 19.1721 5.94 24 12 24C18.06 24 23.011 19.1721 23.2161 13.1613H24V12.7742ZM12 0.774194C14.1345 0.774194 15.871 2.51071 15.871 4.64516C15.871 6.77961 14.1345 8.51613 12 8.51613C9.86555 8.51613 8.12903 6.77961 8.12903 4.64516C8.12903 2.51071 9.86555 0.774194 12 0.774194ZM8.00361 2.2889C7.59406 2.98065 7.35484 3.78465 7.35484 4.64516C7.35484 5.94658 7.89445 7.12297 8.75961 7.96723L6.72 12.3871H0.780774C0.935613 7.84258 3.81174 3.88181 8.00361 2.2889ZM12 23.2258C6.36697 23.2258 1.76284 18.7455 1.55806 13.1613H7.21548L9.37781 8.47587C10.1245 8.98877 11.0276 9.29032 12 9.29032C12.9724 9.29032 13.8755 8.98877 14.6222 8.47587L16.7845 13.1613H20.9032V12.3871H17.28L15.2404 7.96723C16.1055 7.12297 16.6452 5.94658 16.6452 4.64516C16.6452 3.78465 16.4059 2.98065 15.9964 2.2889C20.1883 3.88181 23.0644 7.84258 23.2192 12.3871H21.6774V13.1613H22.4419C22.2372 18.7455 17.633 23.2258 12 23.2258Z" fill="#02133C"/>
</svg>
