<svg width="24" height="24" viewBox="0 0 24 24" fill="none" xmlns="http://www.w3.org/2000/svg">
<path d="M15.0968 1.93542H1.93555V8.90317H15.0968V1.93542Z" fill="#C40B0B"/>
<path d="M22.4516 15.9101V12C22.4516 11.3597 21.9306 10.8387 21.2903 10.8387C20.6501 10.8387 20.129 11.3597 20.129 12V20.129H20.9032V22.0645C20.9032 22.7048 20.3822 23.2258 19.7419 23.2258H7.35484C6.71458 23.2258 6.19355 22.7048 6.19355 22.0645V16.2581H10.8387V21.2903C10.8387 21.9306 11.3597 22.4516 12 22.4516H15.871C16.5112 22.4516 17.0323 21.9306 17.0323 21.2903V20.129H17.8065V16.7164C18.2559 16.8766 18.5806 17.3025 18.5806 17.8065V20.129H19.3548V17.8065C19.3548 16.872 18.6886 16.0901 17.8065 15.9101V12C17.8065 11.496 17.4817 11.0702 17.0323 10.9099V0H0V16.2581H5.41935V22.0645C5.41935 23.1317 6.28761 24 7.35484 24H19.7419C20.8092 24 21.6774 23.1317 21.6774 22.0645V20.129H22.4516V16.7164C22.901 16.8766 23.2258 17.3025 23.2258 17.8065V20.129H24V17.8065C24 16.872 23.3338 16.0901 22.4516 15.9101ZM16.2581 21.2903C16.2581 21.504 16.0843 21.6774 15.871 21.6774H12C11.7867 21.6774 11.6129 21.504 11.6129 21.2903V16.2581H15.4839V20.129H16.2581V21.2903ZM16.6452 11.6129C16.8585 11.6129 17.0323 11.7863 17.0323 12V12.3871H16.2581V12C16.2581 11.7863 16.4319 11.6129 16.6452 11.6129ZM16.2581 19.3548V13.1613H17.0323V19.3548H16.2581ZM0.774194 0.774194H16.2581V10.9099C15.8086 11.0702 15.4839 11.496 15.4839 12V15.4839H0.774194V0.774194ZM21.2903 11.6129C21.5036 11.6129 21.6774 11.7863 21.6774 12V12.3871H20.9032V12C20.9032 11.7863 21.077 11.6129 21.2903 11.6129ZM20.9032 19.3548V13.1613H21.6774V19.3548H20.9032Z" fill="#02133C"/>
<path d="M8.51617 3.0968C4.43695 3.0968 3.17966 5.92106 3.12817 6.04106L3.83888 6.34725C3.8834 6.24661 4.96572 3.871 8.51617 3.871C12.0666 3.871 13.1489 6.24661 13.1927 6.34609L13.9042 6.04145C13.8527 5.92106 12.5954 3.0968 8.51617 3.0968Z" fill="#02133C"/>
<path d="M9.15553 7.08499C8.95424 7.01377 8.74134 6.9677 8.51605 6.9677C7.44882 6.9677 6.58057 7.83596 6.58057 8.90319H7.35476C7.35476 8.26293 7.87579 7.7419 8.51605 7.7419C9.15631 7.7419 9.67734 8.26293 9.67734 8.90319H10.4515C10.4515 8.33996 10.2053 7.83635 9.82018 7.48254L11.1708 5.23157L10.5069 4.83325L9.15553 7.08499Z" fill="#02133C"/>
<path d="M8.51618 10.0646C7.23528 10.0646 6.1936 11.1063 6.1936 12.3872C6.1936 13.6681 7.23528 14.7097 8.51618 14.7097C9.79709 14.7097 10.8388 13.6681 10.8388 12.3872C10.8388 11.1063 9.79709 10.0646 8.51618 10.0646ZM8.51618 13.9355C7.66225 13.9355 6.9678 13.2411 6.9678 12.3872C6.9678 11.5332 7.66225 10.8388 8.51618 10.8388C9.37012 10.8388 10.0646 11.5332 10.0646 12.3872C10.0646 13.2411 9.37012 13.9355 8.51618 13.9355Z" fill="#02133C"/>
<path d="M17.0322 13.1613H16.2581V13.9354H17.0322V13.1613Z" fill="#C40B0B"/>
<path d="M21.6775 13.1613H20.9033V13.9354H21.6775V13.1613Z" fill="#C40B0B"/>
</svg>
