<svg width="24" height="24" viewBox="0 0 24 24" fill="none" xmlns="http://www.w3.org/2000/svg">
<path d="M2.70963 11.6129C2.06937 11.6129 1.54834 12.1339 1.54834 12.7742C1.54834 13.4145 2.06937 13.9355 2.70963 13.9355C3.34989 13.9355 3.87092 13.4145 3.87092 12.7742C3.87092 12.1339 3.34989 11.6129 2.70963 11.6129ZM2.70963 13.1613C2.49634 13.1613 2.32253 12.9879 2.32253 12.7742C2.32253 12.5605 2.49634 12.3871 2.70963 12.3871C2.92292 12.3871 3.09673 12.5605 3.09673 12.7742C3.09673 12.9879 2.92292 13.1613 2.70963 13.1613Z" fill="#02133C"/>
<path d="M22.8387 0H21.6774H13.9355H8.29974C7.79923 0 7.35639 0.318968 7.19806 0.794323L7.07574 1.16129H5.80645C5.16619 1.16129 4.64516 1.68232 4.64516 2.32258V2.82387C3.52723 3.15794 2.70968 4.19419 2.70968 5.41935C2.70968 6.228 3.06735 6.95303 3.63097 7.44968C2.76503 8.10852 2.17045 9.08245 1.9951 10.1632C0.846968 10.4779 0 11.5277 0 12.7742C0 14.268 1.21548 15.4839 2.70968 15.4839H3.09677V14.7097H2.70968C1.64245 14.7097 0.774194 13.8414 0.774194 12.7742C0.774194 11.707 1.64245 10.8387 2.70968 10.8387C3.39832 10.8387 4.04052 11.2095 4.38619 11.8061L5.05587 11.4182C5.01677 11.3508 4.97148 11.2889 4.92735 11.2258H5.41935V8.12903C6.91355 8.12903 8.12903 6.91355 8.12903 5.41935C8.12903 3.92516 6.91355 2.70968 5.41935 2.70968V2.32258C5.41935 2.10929 5.59316 1.93548 5.80645 1.93548H7.63394L7.93277 1.03897C7.98542 0.880645 8.1329 0.774194 8.29974 0.774194H8.55523C8.73523 1.65639 9.51716 2.32258 10.4516 2.32258C11.3861 2.32258 12.168 1.65639 12.348 0.774194H13.9355V5.04232C13.6111 4.79652 13.2116 4.64516 12.7742 4.64516C11.707 4.64516 10.8387 5.51342 10.8387 6.58065C10.8387 7.64787 11.707 8.51613 12.7742 8.51613C13.7086 8.51613 14.4906 7.84994 14.6706 6.96774H20.9032V11.2258H15.871V12H21.6774V6.96774V6.19355H22.8387C23.479 6.19355 24 5.67252 24 5.03226V1.16129C24 0.521032 23.479 0 22.8387 0ZM4.64516 10.8805C4.1609 10.3889 3.49935 10.0932 2.79677 10.0703C3.00039 9.17845 3.55548 8.39187 4.32968 7.89832C4.43148 7.94323 4.53716 7.98 4.64516 8.01252V10.8805ZM7.35484 5.41935C7.35484 6.48658 6.48658 7.35484 5.41935 7.35484C5.02219 7.35484 4.65329 7.23406 4.34555 7.02813L4.3351 7.00645C4.33123 7.00839 4.32813 7.01071 4.32426 7.01264C3.81755 6.6631 3.48387 6.08013 3.48387 5.41935C3.48387 4.35213 4.35213 3.48387 5.41935 3.48387C6.48658 3.48387 7.35484 4.35213 7.35484 5.41935ZM10.4516 1.54839C9.94761 1.54839 9.52181 1.22361 9.36155 0.774194H11.5413C11.3814 1.22361 10.9556 1.54839 10.4516 1.54839ZM12.7742 7.74194C12.1339 7.74194 11.6129 7.2209 11.6129 6.58065C11.6129 5.94039 12.1339 5.41935 12.7742 5.41935C13.4145 5.41935 13.9355 5.94039 13.9355 6.58065C13.9355 7.2209 13.4145 7.74194 12.7742 7.74194ZM18.5806 6.19355H14.7097V0.774194H15.881C15.6352 1.09858 15.4839 1.49806 15.4839 1.93548C15.4839 3.00271 16.3521 3.87097 17.4194 3.87097C17.8568 3.87097 18.2563 3.71961 18.5806 3.47381V6.19355ZM17.4194 3.09677C16.7791 3.09677 16.2581 2.57574 16.2581 1.93548C16.2581 1.29523 16.7791 0.774194 17.4194 0.774194C18.0596 0.774194 18.5806 1.29523 18.5806 1.93548C18.5806 2.57574 18.0596 3.09677 17.4194 3.09677ZM23.2258 5.03226C23.2258 5.24555 23.052 5.41935 22.8387 5.41935H21.6774V4.64516H20.9032V5.41935V6.19355H19.3548V1.93548C19.3548 1.49806 19.2035 1.09858 18.9577 0.774194H20.9032V3.87097H21.6774V0.774194H22.8387C23.052 0.774194 23.2258 0.948 23.2258 1.16129V5.03226Z" fill="#02133C"/>
<path d="M4.25806 5.41935C4.25806 6.05961 4.77909 6.58064 5.41935 6.58064C6.05961 6.58064 6.58064 6.05961 6.58064 5.41935C6.58064 4.77909 6.05961 4.25806 5.41935 4.25806C4.77909 4.25806 4.25806 4.77909 4.25806 5.41935ZM5.80644 5.41935C5.80644 5.63264 5.63264 5.80644 5.41935 5.80644C5.20606 5.80644 5.03225 5.63264 5.03225 5.41935C5.03225 5.20606 5.20606 5.03225 5.41935 5.03225C5.63264 5.03225 5.80644 5.20606 5.80644 5.41935Z" fill="#02133C"/>
<path d="M12 24H8.90327V22.2561C8.34391 22.1121 7.80894 21.8899 7.30727 21.5926L6.07243 22.8271L3.88262 20.6373L5.11707 19.4024C4.81978 18.9008 4.59759 18.3658 4.45359 17.8064H2.70972V14.7097H4.45359C4.59759 14.1503 4.81978 13.6153 5.11707 13.1137L3.88262 11.8788L6.07243 9.68902L7.30727 10.9235C7.80894 10.6262 8.34391 10.404 8.90327 10.26V8.51611H12V10.26C12.5594 10.404 13.0944 10.6262 13.596 10.9235L14.8309 9.68902L17.0207 11.8788L15.7862 13.1137C16.0835 13.6153 16.3057 14.1503 16.4497 14.7097H18.1936V17.8064H16.4497C16.3057 18.3658 16.0835 18.9008 15.7862 19.4024L17.0207 20.6373L14.8309 22.8271L13.596 21.5926C13.0944 21.8899 12.5594 22.1121 12 22.2561V24Z" fill="#C40B0B"/>
<path d="M10.4517 20.129C8.3172 20.129 6.58069 18.3925 6.58069 16.2581C6.58069 14.1236 8.3172 12.3871 10.4517 12.3871C12.5861 12.3871 14.3226 14.1236 14.3226 16.2581C14.3226 17.2866 13.9235 18.2551 13.1985 18.9851L12.6492 18.4401C13.2291 17.8556 13.5484 17.081 13.5484 16.2581C13.5484 14.5506 12.1591 13.1613 10.4517 13.1613C8.74417 13.1613 7.35488 14.5506 7.35488 16.2581C7.35488 17.9655 8.74417 19.3548 10.4517 19.3548C11.0393 19.3548 11.611 19.1895 12.1049 18.8771L12.5188 19.531C11.9009 19.9223 11.186 20.129 10.4517 20.129Z" fill="#02133C"/>
<path d="M10.4516 18.5806C9.17071 18.5806 8.12903 17.5389 8.12903 16.258C8.12903 14.9771 9.17071 13.9354 10.4516 13.9354C11.7325 13.9354 12.7742 14.9771 12.7742 16.258C12.7742 17.5389 11.7325 18.5806 10.4516 18.5806ZM10.4516 14.7096C9.59767 14.7096 8.90322 15.4041 8.90322 16.258C8.90322 17.1119 9.59767 17.8064 10.4516 17.8064C11.3055 17.8064 12 17.1119 12 16.258C12 15.4041 11.3055 14.7096 10.4516 14.7096Z" fill="#02133C"/>
</svg>
