<svg width="24" height="24" viewBox="0 0 24 24" fill="none" xmlns="http://www.w3.org/2000/svg">
<g clip-path="url(#clip0_493_3149)">
<path d="M23.7345 5.14402C23.9596 5.41978 24.0468 5.77805 23.9754 6.12633L22.3267 14.1267C22.2148 14.6723 21.7292 15.0677 21.1729 15.0677H6.59949L6.94655 16.7513H21.0634C21.3893 16.7513 21.6526 17.0153 21.6526 17.3405C21.6526 17.6658 21.3893 17.9298 21.0634 17.9298H6.94655C6.38972 17.9298 5.90476 17.5344 5.79221 16.9893L2.9408 3.14878L0.354521 2.02566C0.0557869 1.89661 -0.0809475 1.54955 0.0487088 1.25077C0.178365 0.951987 0.525428 0.8153 0.823599 0.944956L3.41044 2.06747C3.76163 2.2201 4.01794 2.53533 4.09515 2.91071L4.46579 4.71028H22.8211C23.1765 4.71033 23.51 4.86825 23.7345 5.14402ZM21.173 13.8892L22.8211 5.88881H4.70855L6.35672 13.8892H21.173Z" fill="#02133C"/>
<path d="M22.8211 5.88879L21.1729 13.8891H6.35667L4.7085 5.88879H22.8211ZM18.5755 8.35892C18.5755 8.03365 18.3121 7.76965 17.9863 7.76965H9.5422C9.21632 7.76965 8.95293 8.03365 8.95293 8.35892C8.95293 8.68418 9.21632 8.94818 9.5422 8.94818H17.9863C18.3121 8.94818 18.5755 8.68418 18.5755 8.35892ZM18.1159 11.419C18.1159 11.0937 17.8525 10.8297 17.5267 10.8297H10.0019C9.67598 10.8297 9.41259 11.0937 9.41259 11.419C9.41259 11.7442 9.67598 12.0082 10.0019 12.0082H17.5267C17.8525 12.0082 18.1159 11.7442 18.1159 11.419Z" fill="#C40B0B"/>
<path d="M17.4667 18.8824C18.6311 18.8824 19.5774 19.8294 19.5774 20.9932C19.5774 22.1569 18.6311 23.1039 17.4667 23.1039C16.3029 23.1039 15.356 22.157 15.356 20.9932C15.356 19.8294 16.3029 18.8824 17.4667 18.8824Z" fill="#02133C"/>
<path d="M17.9865 7.76978C18.3123 7.76978 18.5757 8.03378 18.5757 8.35904C18.5757 8.68431 18.3123 8.94831 17.9865 8.94831H9.54239C9.21652 8.94831 8.95312 8.68431 8.95312 8.35904C8.95312 8.03378 9.21652 7.76978 9.54239 7.76978H17.9865Z" fill="#02133C"/>
<path d="M17.5269 10.8297C17.8528 10.8297 18.1162 11.0937 18.1162 11.419C18.1162 11.7442 17.8528 12.0082 17.5269 12.0082H10.0021C9.67623 12.0082 9.41284 11.7442 9.41284 11.419C9.41284 11.0937 9.67623 10.8297 10.0021 10.8297H17.5269Z" fill="#02133C"/>
<path d="M10.0634 18.8824C11.2271 18.8824 12.1741 19.8294 12.1741 20.9932C12.1741 22.1569 11.2272 23.1039 10.0634 23.1039C8.89956 23.1039 7.95264 22.157 7.95264 20.9932C7.95264 19.8294 8.89961 18.8824 10.0634 18.8824Z" fill="#02133C"/>
</g>
<defs>
<clipPath id="clip0_493_3149">
<rect width="24" height="24" fill="white"/>
</clipPath>
</defs>
</svg>
