<svg width="24" height="24" viewBox="0 0 24 24" fill="none" xmlns="http://www.w3.org/2000/svg">
<g clip-path="url(#clip0_493_2954)">
<path d="M20.4578 10.807L19.5818 8.11133L14.5726 9.73895C14.0024 9.92425 13.4174 9.49926 13.4174 8.89959V3.63257H10.5829V8.89959C10.5829 9.49926 9.99786 9.92425 9.42767 9.73895L4.41846 8.11133L3.54248 10.807L8.55188 12.4346C9.12207 12.6199 9.34546 13.3077 8.99298 13.7927L5.89703 18.0539L8.19025 19.7198L11.2862 15.4586C11.6385 14.9736 12.3618 14.9736 12.7141 15.4586L15.81 19.7198L18.103 18.0539L15.0071 13.7927C14.6548 13.3077 14.8782 12.6199 15.4484 12.4346L20.4578 10.807Z" fill="#C40B0B"/>
<path d="M13.3232 12C13.3232 12.7308 12.7309 13.3231 12.0001 13.3231C11.2693 13.3231 10.677 12.7308 10.677 12C10.677 11.2692 11.2693 10.6769 12.0001 10.6769C12.7309 10.6769 13.3232 11.2692 13.3232 12Z" fill="#02133C"/>
<path d="M22.7106 6.58319C21.8948 4.97314 20.7025 3.54254 19.2623 2.44629C19.108 2.32874 18.8873 2.35858 18.7698 2.51312C18.652 2.66748 18.6819 2.88812 18.8364 3.00568C20.1925 4.03802 21.3153 5.38495 22.0834 6.90088C22.8885 8.48987 23.2969 10.2056 23.2969 12C23.2969 15.0176 22.1219 17.8544 19.9882 19.9882C17.8544 22.1219 15.0176 23.2969 12 23.2969C8.98242 23.2969 6.14557 22.1219 4.01184 19.9882C1.87811 17.8544 0.703125 15.0176 0.703125 12C0.703125 8.98242 1.87811 6.14557 4.01184 4.01184C6.14557 1.87811 8.98242 0.703125 12 0.703125C14.0193 0.703125 16.0009 1.24219 17.7301 2.26208C17.8975 2.36078 18.1128 2.30511 18.2115 2.13794C18.3102 1.97058 18.2545 1.75507 18.0873 1.65656C16.2499 0.572754 14.1449 0 12 0C8.79474 0 5.78119 1.24823 3.51471 3.51471C1.24823 5.78119 0 8.79474 0 12C0 15.2053 1.24823 18.2188 3.51471 20.4853C5.78119 22.7518 8.79474 24 12 24C15.2053 24 18.2188 22.7518 20.4853 20.4853C22.7518 18.2188 24 15.2053 24 12C24 10.0941 23.5662 8.27161 22.7106 6.58319Z" fill="#02133C"/>
<path d="M11.9999 4.27649C7.74109 4.27649 4.27637 7.74121 4.27637 12.0001C4.27637 16.2589 7.74109 19.7236 11.9999 19.7236C16.2588 19.7236 19.7235 16.2589 19.7235 12.0001C19.7235 7.74121 16.2588 4.27649 11.9999 4.27649ZM17.0568 7.1355L15.6287 9.02624L14.4636 9.40472C14.3003 9.45782 14.1267 9.43036 13.9876 9.32928C13.8486 9.22821 13.7687 9.07165 13.7687 8.89972V7.95251L15.3645 5.83984C15.9931 6.18463 16.5635 6.6228 17.0568 7.1355ZM17.5284 7.67786C17.6779 7.86847 17.8174 8.06732 17.9467 8.27313L16.7964 8.64685L17.5284 7.67786ZM13.7687 5.20538C14.0952 5.29053 14.4127 5.39856 14.7191 5.52765L13.7687 6.78595V5.20538ZM13.0656 5.06036V8.89972C13.0656 9.29944 13.2511 9.66327 13.5743 9.89819C13.7894 10.0546 14.0716 10.2111 14.681 10.0734L18.2969 8.89862C18.6086 9.52868 18.8289 10.2119 18.9391 10.9309L15.3396 12.1004C14.9597 12.224 14.6709 12.5128 14.5473 12.8927C14.4239 13.2728 14.4878 13.6762 14.7227 13.9994L16.911 17.0115C16.0048 17.8999 14.8599 18.5453 13.5822 18.8407L13.6109 17.2914L13.9075 17.6998C14.0216 17.8569 14.2415 17.8917 14.3986 17.7776C14.5557 17.6633 14.5905 17.4436 14.4763 17.2865L12.9984 15.2522C12.7635 14.9288 12.3997 14.7435 12.0001 14.7435C11.6004 14.7435 11.2366 14.9288 11.0017 15.2522L8.81848 18.2571C8.17926 17.9308 7.5968 17.5093 7.08905 17.0115L9.27753 13.9994C9.51227 13.6762 9.57617 13.2728 9.45276 12.8927C9.32916 12.5126 9.04041 12.2238 8.66046 12.1004L5.06097 10.9309C5.1712 10.2119 5.39148 9.52868 5.70313 8.89862L8.8335 9.91577C9.07337 9.97253 9.22827 9.8385 9.27643 9.69C9.33649 9.50543 9.23541 9.30694 9.05084 9.24707L8.48432 9.06305L7.05701 7.01977C7.56183 6.51861 8.14209 6.09363 8.77912 5.76331L10.2311 7.84192V8.89972C10.2311 9.05884 10.1645 9.20276 10.0433 9.30511C9.89496 9.43017 9.8761 9.6521 10.0013 9.80041C10.0709 9.88281 10.3253 9.99322 10.4968 9.84234C10.77 9.60211 10.9343 9.26428 10.9343 8.89972V5.06036C11.2818 5.00726 11.6378 4.97961 11.9999 4.97961C12.3621 4.97961 12.7181 5.00726 13.0656 5.06036ZM18.9847 12.7094L17.4129 12.1661L19.0114 11.6467C19.0173 11.7639 19.0083 12.4759 18.9847 12.7094ZM16.8336 15.7087L17.7487 16.0249C17.6376 16.1829 17.5204 16.3364 17.3972 16.4845L16.8336 15.7087ZM16.1119 14.7155L15.2914 13.5861C15.1904 13.4471 15.1629 13.2736 15.216 13.11C15.2691 12.9465 15.3934 12.8222 15.5568 12.7691L16.3033 12.5267L18.8768 13.416C18.7307 14.1268 18.4764 14.7985 18.1325 15.4137L16.1119 14.7155ZM10.0643 17.7382L10.0457 18.7435C9.85175 18.6871 9.66114 18.6226 9.47437 18.5503L10.0643 17.7382ZM4.98846 11.6467L6.20483 12.042L4.99194 12.4113C4.98389 12.2751 4.98261 11.7637 4.98846 11.6467ZM7.3725 12.4214L8.44293 12.7691C8.60645 12.8222 8.73078 12.9465 8.78388 13.11C8.83698 13.2736 8.80951 13.4471 8.70844 13.5861L8.09613 14.429L5.7273 15.1502C5.41052 14.5223 5.18549 13.8405 5.06958 13.1227L7.3725 12.4214ZM7.4104 15.3727L6.60272 16.4845C6.41577 16.2598 6.24237 16.0236 6.08417 15.7766L7.4104 15.3727ZM7.37488 8.70251L6.05322 8.27295C6.21106 8.02191 6.38428 7.78131 6.57178 7.55298L7.37488 8.70251ZM10.2311 6.61401L9.42969 5.46686C9.6897 5.36414 9.95722 5.27679 10.2311 5.20557V6.61401ZM10.7459 18.9081L10.7861 16.7451L11.5704 15.6655C11.6715 15.5265 11.828 15.4467 11.9999 15.4467C12.1719 15.4467 12.3284 15.5265 12.4295 15.6655L12.9252 16.3477L12.8765 18.9659C12.5892 19.0018 12.2968 19.0205 11.9999 19.0205C11.572 19.0205 11.1529 18.9819 10.7459 18.9081Z" fill="#02133C"/>
<path d="M10.3254 12C10.3254 12.9234 11.0767 13.6747 12.0001 13.6747C12.9235 13.6747 13.6748 12.9234 13.6748 12C13.6748 11.0766 12.9235 10.3253 12.0001 10.3253C11.0767 10.3253 10.3254 11.0766 10.3254 12ZM12.9717 12C12.9717 12.5358 12.5359 12.9716 12.0001 12.9716C11.4644 12.9716 11.0286 12.5358 11.0286 12C11.0286 11.4642 11.4644 11.0284 12.0001 11.0284C12.5359 11.0284 12.9717 11.4642 12.9717 12Z" fill="black"/>
</g>
<defs>
<clipPath id="clip0_493_2954">
<rect width="24" height="24" fill="white"/>
</clipPath>
</defs>
</svg>
